<?xml version="1.0" encoding="iso-8859-1"?>
<!-- Uploaded to: SVG Repo, www.svgrepo.com, Generator: SVG Repo Mixer Tools -->
<svg height="800px" width="800px" version="1.1" id="Layer_1" xmlns="http://www.w3.org/2000/svg" xmlns:xlink="http://www.w3.org/1999/xlink" 
	 viewBox="0 0 512.001 512.001" xml:space="preserve">
<path style="fill:#FFC4BC;" d="M309.895,406.906L309.895,406.906c0,53.578-43.433,97.01-97.011,97.01H105.095
	c-53.578,0-97.011-43.433-97.011-97.01l0,0c0-53.578,43.433-97.011,97.011-97.011h21.558v-46.023
	c-6.437-3.73-10.779-10.675-10.779-18.651l0,0c0-11.906,9.651-21.558,21.558-21.558h43.116c11.906,0,21.558,9.651,21.558,21.558l0,0
	c0,7.975-4.342,14.921-10.779,18.651v46.023h21.558C266.462,309.896,309.895,353.328,309.895,406.906z"/>
<path style="fill:#FF98B1;" d="M309.893,407.642c-0.397,53.489-44.735,96.274-98.225,96.274h-31.12
	c53.578,0,97.011-43.433,97.011-97.01c0-0.847-0.011-1.69-0.032-2.532c-0.019-0.736-0.049-1.47-0.088-2.201
	c-1.862-33.79-30.432-59.941-64.274-59.941h-32.616c-11.906,0-21.558-9.651-21.558-21.558v-10.779l0,0V266.78l0,0
	c-6.19,0-11.162-5.218-10.755-11.496c0.371-5.729,5.384-10.062,11.125-10.062h10.41c0-11.906-9.651-21.558-21.558-21.558h31.836
	c11.742,0,21.708,9.178,22.049,20.915c0.24,8.243-4.16,15.463-10.769,19.293v46.023h21.558l0,0
	C266.707,309.896,310.293,353.727,309.893,407.642z"/>
<g>
	<path style="fill:#FFDBC3;" d="M126.653,503.917h-21.558c-53.578,0-97.011-43.433-97.011-97.01l0,0
		c0-53.578,43.433-97.011,97.011-97.011h21.558c-53.578,0-97.011,43.433-97.011,97.011l0,0
		C29.642,460.484,73.075,503.917,126.653,503.917z"/>
	<path style="fill:#FFDBC3;" d="M288.337,40.422v10.779c0,11.906-9.651,21.558-21.558,21.558c-11.906,0-21.558-9.651-21.558-21.558
		V40.422c0-11.906,9.651-21.558,21.558-21.558S288.337,28.515,288.337,40.422z M40.421,115.874H29.642
		c-11.906,0-21.558,9.651-21.558,21.558s9.651,21.558,21.558,21.558h10.779c11.906,0,21.558-9.651,21.558-21.558
		S52.328,115.874,40.421,115.874z M497.602,14.399L497.602,14.399c-8.419-8.419-22.069-8.419-30.487,0l-7.622,7.622
		c-8.418,8.419-8.418,22.069,0,30.488l0,0c8.418,8.418,22.069,8.418,30.487,0l7.622-7.622
		C506.021,36.468,506.021,22.818,497.602,14.399z M109.56,14.399c-8.418-8.419-22.069-8.419-30.487,0l0,0
		c-8.418,8.419-8.418,22.069,0,30.487l7.622,7.622c8.418,8.418,22.069,8.418,30.487,0l0,0c8.418-8.419,8.418-22.069,0-30.488
		L109.56,14.399z M471.579,169.769c-11.906,0-21.558,9.651-21.558,21.558v10.779c0,11.906,9.651,21.558,21.558,21.558
		s21.558-9.651,21.558-21.558v-10.779C493.137,179.421,483.486,169.769,471.579,169.769z"/>
</g>
<path style="fill:#FFC4BC;" d="M288.337,40.422v10.779c0,11.906-9.651,21.558-21.558,21.558c-3.931,0-7.606-1.069-10.779-2.907
	c6.437-3.73,10.779-10.675,10.779-18.651V40.422c0-7.974-4.342-14.921-10.779-18.651c3.173-1.838,6.848-2.907,10.779-2.907
	C278.686,18.864,288.337,28.515,288.337,40.422z M40.421,137.432H29.642c-7.974,0-14.921-4.342-18.651-10.779
	c-1.838,3.173-2.907,6.848-2.907,10.779l0,0c0,11.906,9.651,21.558,21.558,21.558h10.779c11.906,0,21.558-9.651,21.558-21.558l0,0
	c0-3.931-1.069-7.606-2.907-10.779C55.343,133.091,48.397,137.432,40.421,137.432z M501.832,20.442
	c-1.032,2.184-2.425,4.238-4.231,6.044l-7.622,7.622c-8.419,8.419-22.069,8.419-30.487,0l0,0c-1.805-1.805-3.199-3.86-4.231-6.043
	c-3.777,7.998-2.383,17.831,4.231,24.444l0,0c8.418,8.418,22.069,8.418,30.487,0l7.622-7.622
	C504.216,38.274,505.609,28.44,501.832,20.442z M109.56,14.399c-8.418-8.419-22.069-8.419-30.487,0l0,0
	c-2.906,2.906-4.784,6.439-5.684,10.161c8.154-4.355,18.517-3.1,25.392,3.775l7.622,7.622c5.513,5.513,7.391,13.265,5.684,20.326
	c1.83-0.978,3.552-2.231,5.095-3.775l0,0c8.418-8.419,8.418-22.069,0-30.488L109.56,14.399z M471.579,169.769
	c-3.931,0-7.606,1.069-10.779,2.907c6.437,3.73,10.779,10.675,10.779,18.651v10.779c0,7.974-4.342,14.921-10.779,18.651
	c3.173,1.838,6.848,2.907,10.779,2.907c11.906,0,21.558-9.651,21.558-21.558v-10.779
	C493.137,179.421,483.486,169.769,471.579,169.769z"/>
<path d="M474.749,66.895c7.917,0,15.362-3.084,20.96-8.682l7.623-7.622c11.558-11.558,11.558-30.365,0-41.924
	c-11.557-11.556-30.362-11.556-41.92,0l-7.623,7.622c-5.599,5.599-8.682,13.044-8.682,20.962c0,5.145,1.302,10.091,3.751,14.459
	l-45.289,45.289h-31.03l7.758-7.757c3.157-3.158,3.157-8.276,0-11.434c-3.157-3.156-8.276-3.156-11.433,0l-19.191,19.191h-74.801
	V79.711c12.429-3.528,21.559-14.979,21.559-28.523V40.409c0-16.345-13.298-29.643-29.643-29.643s-29.643,13.298-29.643,29.643
	v10.779c0,13.544,9.13,24.995,21.559,28.523v22.248l-69.189,76.107l-43.993-43.993V110.08l17.089-8.544
	c3.994-1.997,5.613-6.853,3.615-10.847c-1.996-3.993-6.852-5.61-10.846-3.615l-9.858,4.928V72.747c0-2.144-0.852-4.201-2.368-5.717
	l-15.319-15.318c2.448-4.369,3.751-9.315,3.751-14.459c0-7.918-3.083-15.362-8.682-20.962l-7.623-7.622
	C103.722-2.888,84.916-2.888,73.359,8.668c-11.558,11.558-11.558,30.365,0,41.924l7.621,7.621
	c5.599,5.599,13.043,8.684,20.961,8.684c5.146,0,10.09-1.302,14.459-3.751l12.951,12.951v28.826c-0.002,0.112-0.002,0.226,0,0.338
	v24.078h-13.3c-0.112-0.002-0.223-0.002-0.335,0h-46.77c-3.527-12.429-14.978-21.559-28.522-21.559H29.643
	C13.298,107.779,0,121.077,0,137.422s13.298,29.643,29.643,29.643h10.779c13.544,0,24.995-9.13,28.522-21.559h33.851l-4.929,9.858
	c-1.997,3.994-0.378,8.85,3.615,10.847c3.993,2.001,8.85,0.378,10.846-3.615l8.544-17.09h13.214l44.538,44.539l-23.207,25.527
	h-17.983c-16.345,0-29.643,13.298-29.643,29.643c0,8.876,4.036,17.256,10.779,22.838v33.752h-13.474
	C47.146,301.806,0,348.952,0,406.903s47.146,105.098,105.098,105.098H353.02c4.465,0,8.084-3.62,8.084-8.084
	c0-4.465-3.62-8.084-8.084-8.084H268.85c29.501-18.633,49.138-51.532,49.138-88.928c0-29.854-12.767-58.405-35.025-78.33
	c-3.326-2.976-8.437-2.696-11.416,0.632c-2.978,3.326-2.695,8.437,0.632,11.415c18.837,16.863,29.641,41.021,29.641,66.283
	c0,49.036-39.893,88.928-88.928,88.928h-53.896c-49.036,0-88.928-39.894-88.928-88.928c0-13.885,3.109-27.181,9.24-39.519
	c1.987-3.999,0.357-8.851-3.642-10.838c-4-1.987-8.851-0.356-10.837,3.642c-7.252,14.593-10.929,30.31-10.929,46.715
	c0,37.384,19.617,70.269,49.1,88.905c-48.07-1.123-86.83-40.574-86.83-88.906c0-49.035,39.893-88.928,88.928-88.928h43.117
	c4.465,0,8.084-3.62,8.084-8.084c0-4.466-3.62-8.084-8.084-8.084H134.74v-37.94c0-2.884-1.536-5.55-4.031-6.994
	c-4.162-2.411-6.748-6.878-6.748-11.656c0-7.43,6.045-13.474,13.474-13.474h21.526c0.019,0,0.04,0,0.061,0h21.53
	c7.43,0,13.474,6.045,13.474,13.474c0,4.778-2.585,9.244-6.748,11.656c-2.495,1.445-4.031,4.111-4.031,6.994v46.024
	c0,4.466,3.62,8.084,8.084,8.084h21.559c13.887,0,27.182,3.109,39.519,9.24c3.998,1.989,8.851,0.357,10.837-3.641
	c1.987-3.998,0.357-8.851-3.642-10.837c-14.593-7.253-30.309-10.93-46.715-10.93h-13.474v-33.752
	c6.743-5.582,10.779-13.962,10.779-22.838c0-16.345-13.298-29.643-29.643-29.643h-3.283l93.093-102.403h25.412l19.191,19.191
	c3.157,3.156,8.276,3.156,11.433,0c3.157-3.158,3.157-8.276,0-11.434l-7.758-7.757h84.926l52.751,52.752
	c-8.605,5.193-14.37,14.636-14.37,25.397v10.779c0,16.345,13.298,29.643,29.643,29.643c16.345,0,29.643-13.298,29.643-29.643
	v-10.779c0-15.14-11.41-27.665-26.081-29.43l-56.803-56.804l41.941-41.94C464.658,65.593,469.603,66.895,474.749,66.895z
	 M465.221,27.724l7.622-7.622c2.628-2.628,6.077-3.94,9.529-3.94c3.45,0,6.901,1.314,9.527,3.94c5.254,5.254,5.254,13.801,0,19.055
	l-7.623,7.622c0,0,0,0-0.001,0.001c-2.544,2.544-5.928,3.946-9.527,3.946c-3.599,0-6.983-1.402-9.527-3.947
	C459.968,41.526,459.968,32.977,465.221,27.724z M111.469,46.778c-2.545,2.545-5.928,3.947-9.528,3.947s-6.983-1.402-9.529-3.947
	l-7.622-7.622c-5.254-5.254-5.254-13.801,0-19.055c2.628-2.628,6.077-3.94,9.529-3.94c3.45,0,6.902,1.314,9.528,3.94l7.622,7.622
	c2.545,2.544,3.946,5.928,3.946,9.528C115.415,40.85,114.014,44.234,111.469,46.778z M40.422,150.896H29.643
	c-7.43,0-13.474-6.045-13.474-13.474c0-7.43,6.045-13.474,13.474-13.474h10.779c7.43,0,13.474,6.045,13.474,13.474
	S47.852,150.896,40.422,150.896z M266.787,64.662c-7.43,0-13.474-6.045-13.474-13.474V40.409c0-7.43,6.045-13.474,13.474-13.474
	c7.43,0,13.474,6.045,13.474,13.474v10.779C280.26,58.618,274.216,64.662,266.787,64.662z M458.117,191.318
	c0-7.43,6.045-13.474,13.474-13.474c7.429,0,13.474,6.045,13.474,13.474v10.779c0,7.43-6.045,13.474-13.474,13.474
	c-7.429,0-13.474-6.045-13.474-13.474V191.318z"/>
</svg>